<svg t="1619165311866" class="icon" viewBox="0 0 1024 1024" version="1.1" xmlns="http://www.w3.org/2000/svg" p-id="2027"
  width="200" height="200">
  <path
    d="M846.742 373.124c-41.878 0-76.094 34.446-76.094 76.624v-89.406c0-42.178-34.198-76.623-76.094-76.623-41.86 0-76.076 34.445-76.076 76.623v-54.554c0-42.161-34.198-76.624-76.093-76.624-41.879 0-76.077 34.463-76.077 76.624V79.236c0-42.178-34.198-76.623-76.093-76.623-41.878 0-76.094 34.445-76.094 76.623v547.84l-89.865-90.535a78.742 78.742 0 0 0-111.616 0c-30.702 30.896-30.702 81.478 0 112.393L361.49 899.53c57.909 71.998 146.714 118.148 246.024 118.148 169.278 0 307.642-133.596 315.534-301.426h0.441V449.536c-0.653-41.737-34.869-76.412-76.747-76.412z"
    p-id="2028" fill="#d81e06"></path>
</svg>