<svg t="1619071591912" class="icon" viewBox="0 0 1024 1024" version="1.1" xmlns="http://www.w3.org/2000/svg" p-id="6193"
  width="200" height="200">
  <path
    d="M225.507556 814.250667V366.136889h60.700444v64.056889h3.356444a132.608 132.608 0 0 1 117.987556-73.955556 115.427556 115.427556 0 0 1 104.504889 64.056889 9.955556 9.955556 0 0 1 3.356444 6.712889 142.222222 142.222222 0 0 1 121.344-70.769778q117.987556 10.126222 121.344 148.309334v310.101333H694.044444v-290.133333q0-104.448-73.955555-104.504889-87.722667 10.126222-94.378667 124.700444v269.653333H458.126222V504.263111q-3.413333-84.195556-64.056889-84.252444-101.091556 10.126222-104.504889 151.665777v242.688z m566.328888-637.155556h-53.930666q6.712889-111.217778 101.148444-117.987555a91.022222 91.022222 0 0 1 94.378667 91.022222 101.489778 101.489778 0 0 1-50.574222 87.665778 72.078222 72.078222 0 0 0-17.066667 13.482666 251.619556 251.619556 0 0 0-60.700444 53.930667h128.113777v50.574222h-199.111111q-6.769778-70.769778 84.252445-131.470222a39.139556 39.139556 0 0 1 10.126222-6.769778q47.160889-30.321778 47.217778-64.056889a41.870222 41.870222 0 0 0-40.448-43.804444q-40.049778 3.413333-43.406223 67.470222z"
    fill="#ffffff" p-id="6194"></path>
  <path
    d="M914.147556 611.953778v209.521778a38.115556 38.115556 0 0 1-38.058667 38.058666H152.689778a38.115556 38.115556 0 0 1-38.058667-38.058666V152.689778a38.115556 38.115556 0 0 1 38.058667-38.058667H431.786667V56.604444H152.689778A95.800889 95.800889 0 0 0 56.888889 152.405333v668.842667a95.800889 95.800889 0 0 0 95.800889 95.800889H876.088889a95.800889 95.800889 0 0 0 95.800889-95.800889v-209.521778z"
    fill="#ffffff" p-id="6195"></path>
</svg>