<svg t="1619071405298" class="icon" viewBox="0 0 1024 1024" version="1.1" xmlns="http://www.w3.org/2000/svg" p-id="4827"
  width="200" height="200">
  <path
    d="M695.43089493 77.21378702l-0.84468622-0.81555911-612.4732416 628.621312-0.81555911 0.8388608 247.27169707 240.92781227 0.83303538 0.81555911L941.88703289 319.29503289l0.82138453-0.83303538-247.27752249-241.24821049zM184.43650845 704.55350613l27.12316586-27.72318435 71.7225984 69.82933617 50.09863111-51.38604942 0.81555911-0.83303538-71.7225984-70.14390897 43.55668196-44.7741952 71.7225984 69.82351075 50.91419022-52.22491022-71.7225984-69.82351076 49.55686684-51.0947783 71.7225984 69.81768533 50.92001565-52.2190848-71.74007467-69.81185991 49.56269227-51.09477832 71.71677298 69.82351076 50.91419022-52.2190848-71.71677298-69.50893796 57.76488676-59.30862364 71.72842382 69.82351076 50.09863111-51.38604942 0.80973369-0.83303538-71.4080256-69.82933618 29.02225351-29.91936854 143.66656284 139.91499094-511.4720711 525.00452693-143.654912-139.90334009z"
    p-id="4828" fill="#18b4c3"></path>
</svg>