<svg t="1619071283662" class="icon" viewBox="0 0 1024 1024" version="1.1" xmlns="http://www.w3.org/2000/svg" p-id="4099"
  width="200" height="200">
  <path
    d="M508.23 93.14c118.53 0 225.8 48.49 303.59 126.49A426.87 426.87 0 0 1 937.6 522.71c0 118.77-48 225.83-125.78 304C734 904.06 626.76 952.08 508.23 952.08a429.33 429.33 0 0 1-303.55-125.33C126.91 748.54 78.9 641.48 78.9 522.71a426.75 426.75 0 0 1 125.78-303.08c77.76-78 185-126.49 303.55-126.49zM765 779.45c61.61-60.9 101-144.3 106.1-236.81H745.75c-1.86 78.93-16.64 152-39.84 213.61A404.33 404.33 0 0 1 756 788.34c3.05-3.27 6.1-5.84 8.91-8.89z m-40.28 35.11a321.93 321.93 0 0 0-34.89-22c-3.29 6.81-6.33 13.36-10.31 19.94-8.67 16.12-18.05 31.13-28.82 44.49a355.71 355.71 0 0 0 74-42.42zM568 881.1c29.25-18.05 55.26-48.25 76.81-87.83a169.65 169.65 0 0 0 9.6-18c-4.67-2.12-9.84-4-14.74-5.65a369.56 369.56 0 0 0-111.73-23v138.92A362.68 362.68 0 0 0 568 881.1z m-79.66 4.44V746.63a366.33 366.33 0 0 0-111.47 23c-5.17 1.65-9.62 3.53-14.77 5.65 3 6.55 6.08 12.38 9.36 18 21.77 39.58 48.26 69.78 76.62 87.83a385.36 385.36 0 0 0 40.26 4.44zM365.59 857a373.7 373.7 0 0 1-28.8-44.49c-3.29-6.58-7-13.13-10.55-19.94a405 405 0 0 0-34.68 22 362.06 362.06 0 0 0 74 42.42z m-105.18-68.66A351.92 351.92 0 0 1 311 756.25c-23.67-61.61-37.94-134.68-40.3-213.61H145.4a361.29 361.29 0 0 0 105.89 236.81c3 3 6.07 5.62 9.12 8.89z m409.22-49.42c21.08-56.23 34.42-123.43 36.78-196.28H527.92v164.17a414.74 414.74 0 0 1 125.54 25.55c5.62 2.12 10.77 4.44 16.17 6.56z m-181.31-32.11V542.64H310.54c1.88 72.85 14.75 140.05 36.09 196.28 5.6-2.12 10.76-4.44 16.41-6.56a417.27 417.27 0 0 1 125.28-25.55zM765 266c-2.81-2.81-5.86-5.86-8.91-8.44a431.18 431.18 0 0 1-50.13 31.87c23.2 61.14 38 134.66 39.84 213.36h125.3A361.63 361.63 0 0 0 765 266z m-40.28-34.92a367.52 367.52 0 0 0-74-42.61A309.17 309.17 0 0 1 679.47 233c4 6.34 7 13.36 10.31 20.39a313.41 313.41 0 0 0 34.89-22.27zM568 164.59c-13.12-2.12-26-4-40.06-4.45V299a360.68 360.68 0 0 0 111.73-22.94 158 158 0 0 0 14.74-5.86c-3-6.1-6.1-12.19-9.6-17.79-21.55-39.82-47.56-70.05-76.81-87.84z m-79.66-4.45a328.07 328.07 0 0 0-40.26 4.45c-28.36 17.79-54.85 48-76.62 87.84-3.28 5.6-6.33 11.69-9.36 17.79 5.15 2.12 9.6 4.22 14.77 5.86A357.57 357.57 0 0 0 488.32 299V160.14z m-122.75 28.34a374.31 374.31 0 0 0-74 42.61 391.71 391.71 0 0 0 34.68 22.27c3.52-7 7.26-14.05 10.55-20.39a411.12 411.12 0 0 1 28.8-44.49z m-105.18 69.09c-3.05 2.58-6.1 5.63-9.12 8.44A362.72 362.72 0 0 0 145.4 502.8h125.32c2.36-78.7 16.63-152.22 40.3-213.36a371.9 371.9 0 0 1-50.61-31.87z m409.22 49a142.76 142.76 0 0 1-16.17 6.31 413.62 413.62 0 0 1-125.54 26v164h178.49c-2.36-72.6-15.7-140-36.78-196.26z m-181.31 32.3a416.19 416.19 0 0 1-125.28-26 160.27 160.27 0 0 1-16.41-6.31c-21.34 56.21-34.21 123.66-36.09 196.26h177.78v-164z"
    fill="#ffffff" p-id="4100"></path>
</svg>