<svg t="1619072088862" class="icon" viewBox="0 0 1199 1024" version="1.1" xmlns="http://www.w3.org/2000/svg"
  p-id="12604" width="200" height="200">
  <path
    d="M599.543771 556.007533a43.593819 43.593819 0 0 1-17.095615-3.461862l-555.607496-233.910756a43.850253 43.850253 0 0 1-26.840116-40.388391 43.850253 43.850253 0 0 1 26.840116-40.43113l555.607496-233.910755a43.764775 43.764775 0 0 1 34.19123 0l555.607496 233.910755a43.807514 43.807514 0 0 1 26.840116 40.43113 43.807514 43.807514 0 0 1-26.840116 40.388391l-555.607496 233.910756a43.508341 43.508341 0 0 1-17.095615 3.461862z m-442.477261-277.803748l442.477261 186.299467 442.477262-186.299467-442.477262-186.342206z"
    p-id="12605" fill="#ffffff"></path>
  <path
    d="M599.543771 790.089244a43.636558 43.636558 0 0 1-17.095615-3.461862l-555.607496-233.910755a43.850253 43.850253 0 0 1-23.378253-57.441267 43.850253 43.850253 0 0 1 57.441267-23.420993l538.51188 226.516902 538.51188-226.516902a43.892992 43.892992 0 0 1 57.441267 23.420993 43.850253 43.850253 0 0 1-23.420993 57.441267l-555.607495 233.910755a43.508341 43.508341 0 0 1-16.796442 3.461862z"
    p-id="12606" fill="#ffffff"></path>
  <path
    d="M599.543771 1024a43.593819 43.593819 0 0 1-17.095615-3.461862l-555.607496-233.868017a43.850253 43.850253 0 0 1-23.378253-57.441267 43.807514 43.807514 0 0 1 57.441267-23.420993l538.51188 226.516902 538.51188-226.516902a43.892992 43.892992 0 0 1 57.441267 23.420993 43.850253 43.850253 0 0 1-23.420993 57.441267l-555.607495 233.868017a43.465602 43.465602 0 0 1-16.796442 3.461862z"
    p-id="12607" fill="#ffffff"></path>
</svg>