<svg t="1619071716745" class="icon" viewBox="0 0 1024 1024" version="1.1" xmlns="http://www.w3.org/2000/svg" p-id="6943"
  width="200" height="200">
  <path
    d="M968.96 833.536h-33.792V156.416a33.792 33.792 0 0 0-33.792-33.792H156.416V37.888a33.792 33.792 0 0 0-67.84 0v84.48H54.784a33.792 33.792 0 0 0 0 67.84h33.792v677.12a33.792 33.792 0 0 0 33.792 33.792h744.96v84.736a33.792 33.792 0 0 0 67.84 0v-84.48h33.792a33.792 33.792 0 1 0 0-67.84z m-812.8 0V190.208h711.424v643.328z m0 0"
    fill="#18b4c3" p-id="6944"></path>
  <path
    d="M274.944 358.4a67.84 67.84 0 1 0 67.84-67.84A67.84 67.84 0 0 0 274.944 358.4z m540.672 366.08l-100.352-268.544a18.176 18.176 0 0 0-15.36-11.776 18.432 18.432 0 0 0-17.664 8.192l-113.92 173.568a18.688 18.688 0 0 1-24.064 6.4L349.44 537.6a18.688 18.688 0 0 0-24.064 6.4l-115.712 176.64a17.408 17.408 0 0 0 0 18.432 18.176 18.176 0 0 0 16.384 9.472h572.16a18.176 18.176 0 0 0 15.36-7.68 17.408 17.408 0 0 0 2.304-16.64z m0 0"
    fill="#18b4c3" p-id="6945"></path>
</svg>